<?xml version="1.0" encoding="UTF-8"?>
<svg width="26px" height="52px" viewBox="0 0 26 52" version="1.1" xmlns="http://www.w3.org/2000/svg" xmlns:xlink="http://www.w3.org/1999/xlink">
    <!-- Generator: Sketch 52.5 (67469) - http://www.bohemiancoding.com/sketch -->
    <title>Group</title>
    <desc>Created with Sketch.</desc>
    <g id="Page-1" stroke="none" stroke-width="1" fill="none" fill-rule="evenodd">
        <g id="Group" fill="#09BEA3">
            <g id="Path">
                <path d="M6.928,26.121 C6.928,18.538 9.833,11.359 15.108,5.907 C16.248,4.73 16.232,2.856 15.072,1.698 L14.769,1.396 C14.206,0.834 13.444,0.519 12.649,0.519 C12.641,0.519 12.632,0.519 12.624,0.519 C11.82,0.526 11.053,0.854 10.494,1.432 C4.049,8.085 0.5,16.853 0.5,26.121 C0.5,35.39 4.049,44.158 10.495,50.81 C11.055,51.388 11.822,51.716 12.626,51.723 C12.634,51.723 12.642,51.723 12.65,51.723 C13.445,51.723 14.209,51.408 14.771,50.844 L15.074,50.541 C16.232,49.383 16.248,47.511 15.109,46.334 C9.833,40.884 6.928,33.705 6.928,26.121 Z"></path>
                <path d="M24.812,13.06 L24.664,12.912 C24.102,12.349 23.338,12.033 22.543,12.033 C22.535,12.033 22.527,12.033 22.519,12.033 C21.715,12.039 20.948,12.368 20.388,12.946 C16.949,16.496 15.055,21.175 15.055,26.122 C15.055,31.069 16.949,35.749 20.389,39.299 C20.948,39.876 21.716,40.204 22.52,40.211 C22.528,40.211 22.536,40.211 22.543,40.211 C23.338,40.211 24.102,39.896 24.664,39.332 L24.812,39.184 C25.97,38.026 25.985,36.154 24.847,34.976 C22.537,32.589 21.264,29.446 21.264,26.122 C21.264,22.8 22.536,19.655 24.847,17.268 C25.986,16.09 25.971,14.217 24.812,13.06 Z"></path>
            </g>
        </g>
    </g>
</svg>